<svg fill="#be123c" height="800px" width="800px" version="1.1" id="Layer_1" xmlns="http://www.w3.org/2000/svg" xmlns:xlink="http://www.w3.org/1999/xlink" 
	 viewBox="0 0 512 512" xml:space="preserve">
<g>
	<g>
		<path d="M256,0C114.842,0,0,114.842,0,256s114.842,256,256,256s256-114.842,256-256S397.158,0,256,0z M119.91,131.977
			c-3.337-3.328-3.337-8.73,0-12.066c11.281-11.281,26.274-17.493,42.231-17.493s30.959,6.212,42.24,17.493
			c3.336,3.328,3.336,8.73,0,12.066c-1.664,1.664-3.849,2.5-6.033,2.5c-2.185,0-4.369-0.836-6.033-2.5
			c-8.055-8.055-18.773-12.493-30.174-12.493c-11.392,0-22.11,4.437-30.165,12.493C128.64,135.313,123.238,135.313,119.91,131.977z
			 M136.533,221.867c-2.185,0-4.369-0.836-6.033-2.5c-3.336-3.337-3.336-8.738,0-12.066l19.567-19.567L130.5,168.166
			c-3.336-3.336-3.336-8.738,0-12.066c3.328-3.337,8.73-3.337,12.066,0l19.567,19.567L181.7,156.1c3.328-3.337,8.73-3.337,12.066,0
			c3.328,3.328,3.328,8.73,0,12.066l-19.567,19.567l19.567,19.567c3.328,3.328,3.328,8.73,0,12.066
			c-1.673,1.664-3.849,2.5-6.033,2.5s-4.369-0.836-6.033-2.5l-19.567-19.567l-19.567,19.567
			C140.894,221.03,138.718,221.867,136.533,221.867z M341.333,332.8H170.667c-4.719,0-8.533-3.823-8.533-8.533
			c0-4.719,3.814-8.533,8.533-8.533h170.667c4.71,0,8.533,3.814,8.533,8.533C349.867,328.977,346.044,332.8,341.333,332.8z
			 M381.5,207.3c3.328,3.328,3.328,8.73,0,12.066c-1.673,1.664-3.849,2.5-6.033,2.5c-2.185,0-4.369-0.836-6.033-2.5l-19.567-19.567
			L330.3,219.366c-1.673,1.664-3.849,2.5-6.033,2.5c-2.185,0-4.369-0.836-6.033-2.5c-3.336-3.337-3.336-8.738,0-12.066
			l19.567-19.567l-19.567-19.567c-3.336-3.336-3.336-8.738,0-12.066c3.328-3.337,8.73-3.337,12.066,0l19.567,19.567l19.567-19.567
			c3.328-3.337,8.73-3.337,12.066,0c3.328,3.328,3.328,8.73,0,12.066l-19.567,19.567L381.5,207.3z M392.09,131.977
			c-1.664,1.664-3.849,2.5-6.033,2.5c-2.185,0-4.369-0.836-6.033-2.5c-8.055-8.055-18.773-12.493-30.165-12.493
			c-11.401,0-22.118,4.437-30.174,12.493c-3.337,3.336-8.738,3.336-12.066,0c-3.337-3.337-3.337-8.738,0-12.066
			c11.281-11.281,26.283-17.493,42.24-17.493s30.95,6.212,42.231,17.493C395.426,123.247,395.426,128.649,392.09,131.977z"/>
	</g>
</g>
</svg>